<svg xmlns="http://www.w3.org/2000/svg" viewBox="0 0 900 1100">
  <defs>
    <linearGradient id="bg" x1="0" x2="1" y1="0" y2="1">
      <stop offset="0" stop-color="#d8ff3e"/>
      <stop offset=".5" stop-color="#0f6f5f"/>
      <stop offset="1" stop-color="#07100e"/>
    </linearGradient>
    <filter id="shadow" x="-30%" y="-30%" width="160%" height="160%">
      <feDropShadow dx="0" dy="34" stdDeviation="28" flood-color="#000" flood-opacity=".4"/>
    </filter>
  </defs>
  <rect width="900" height="1100" rx="70" fill="url(#bg)"/>
  <g filter="url(#shadow)">
    <path d="M306 180h288l64 136 80 70-70 112-62-38 28 256H266l28-256-62 38-70-112 80-70z" fill="#ecff8b"/>
    <path d="M342 338h216v342H342z" fill="#0d5d50"/>
    <path d="M292 725h132v206H264zM476 725h132l28 206H476z" fill="#0b4239"/>
    <path d="M369 235h162" stroke="#0b4239" stroke-width="22"/>
    <path d="M386 456h128M386 542h128" stroke="#ecff8b" stroke-width="14"/>
    <text x="450" y="811" text-anchor="middle" font-family="Arial Black,Arial,sans-serif" font-size="74" fill="#ecff8b">YLC</text>
    <text x="450" y="868" text-anchor="middle" font-family="Arial Black,Arial,sans-serif" font-size="42" fill="#fff">COLLECTIVES</text>
  </g>
</svg>
